<?xml version="1.0" encoding="UTF-8"?>
<svg id="Layer_2" data-name="Layer 2" xmlns="http://www.w3.org/2000/svg" viewBox="0 0 77.66 77.79">
  <defs>
    <style>
      .cls-1 {
        fill: #304242;
        stroke-width: 0px;
      }
    </style>
  </defs>
  <g id="Layer_1-2" data-name="Layer 1">
    <g>
      <path class="cls-1" d="M26.46,0c8.25,0,16.51,0,24.76,0,.7.05,1.41.09,2.11.16,2.66.29,5.36.37,7.96.95,6.46,1.44,11.21,5.19,14.03,11.23,1.86,3.98,2.32,8.24,2.33,12.57.02,9.09.06,18.17-.03,27.26-.03,2.77-.2,5.59-.77,8.28-1.88,8.93-7.39,14.41-16.31,16.41-3.8.86-7.69.83-11.55.87-6.73.07-13.46.07-20.2,0-3.91-.04-7.85-.04-11.7-.89-8.83-1.95-14.72-8.11-16.31-16.98-.64-3.56-.69-7.15-.72-10.74-.05-6.81-.1-13.62.02-20.42.06-3.63.24-7.29.78-10.88.79-5.32,3.37-9.75,7.69-13.06C12.33,1.86,16.73.67,21.39.31c1.69-.13,3.38-.21,5.07-.31ZM38.87,70.89s0-.09,0-.14c2.83,0,5.67.06,8.5-.01,3.89-.09,7.81.07,11.65-.72,5.54-1.13,9.2-4.38,10.75-9.89.7-2.51.84-5.09.87-7.67.08-7.85.13-15.69.06-23.54-.03-3.33-.15-6.7-.69-9.97-.95-5.75-4.38-9.46-10.1-10.93-3.22-.83-6.52-.83-9.8-.87-6.45-.08-12.91-.05-19.36-.03-3.84.01-7.7-.06-11.5.63-5.84,1.06-9.7,4.36-11.22,10.21-.71,2.75-.8,5.56-.82,8.36-.06,8.4-.07,16.81,0,25.21.02,2.42.23,4.86.61,7.25.61,3.89,2.5,7.08,5.87,9.25,2.58,1.66,5.5,2.31,8.5,2.43,5.56.22,11.13.29,16.7.43Z"/>
      <path class="cls-1" d="M38.91,18.89c11,0,19.97,8.97,20,19.99.03,11-9.04,20.06-20.04,20.02-11-.04-19.98-9.05-19.97-20.03.02-10.99,9.02-19.99,20.01-19.98ZM38.91,51.82c7.17,0,12.92-5.75,12.93-12.91,0-7.16-5.75-12.94-12.9-12.95-7.2,0-12.97,5.75-12.96,12.95,0,7.16,5.76,12.91,12.93,12.91Z"/>
      <path class="cls-1" d="M59.66,22.78c-2.6,0-4.64-2.06-4.64-4.67,0-2.59,2.09-4.68,4.67-4.66,2.58.02,4.67,2.12,4.66,4.69,0,2.59-2.09,4.64-4.69,4.64Z"/>
    </g>
  </g>
</svg>